<svg width="360" height="305" viewBox="0 0 360 305" fill="none" xmlns="http://www.w3.org/2000/svg">
<path fill-rule="evenodd" clip-rule="evenodd" d="M210.699 -8.13605H210.317L-15.6973 262.431V262.889L210.699 -8.13605ZM155.484 -8.13605H155.099L-15.6973 196.329V196.786L155.484 -8.13605ZM217.219 -8.13605H217.601L-15.6973 271.151V270.693L217.219 -8.13605ZM224.505 -8.13605H224.12L-15.6973 278.955V279.416L224.505 -8.13605ZM231.022 -8.13605H231.407L-15.6973 287.678V287.217L231.022 -8.13605ZM314.234 -8.13605H313.849L45.4844 313.13H45.8693L314.234 -8.13605ZM175.807 -8.13605H176.189L-15.6973 221.575V221.118L175.807 -8.13605ZM196.896 -8.13605H196.511L-15.6973 245.904V246.365L196.896 -8.13605ZM168.905 -8.13605H169.287L-15.6973 213.313V212.856L168.905 -8.13605ZM189.992 -8.13605H189.61L-15.6973 237.642V238.1L189.992 -8.13605ZM182.708 -8.13605H183.09L-15.6973 229.838V229.38L182.708 -8.13605ZM203.798 -8.13605H203.416L-15.6973 254.169V254.627L203.798 -8.13605ZM279.338 -8.13605H279.72L11.3559 313.13H10.9736L279.338 -8.13605ZM286.625 -8.13605H286.24L17.875 313.13H18.2599L286.625 -8.13605ZM293.144 -8.13605H293.526L25.1613 313.13H24.7764L293.144 -8.13605ZM300.428 -8.13605H300.046L31.6816 313.13H32.0639L300.428 -8.13605ZM306.948 -8.13605H307.33L38.9652 313.13H38.583L306.948 -8.13605ZM259.016 -8.13605H258.631L-9.7334 313.13H-9.34847L259.016 -8.13605ZM272.437 -8.13605H272.819L4.45448 313.13H4.07227L272.437 -8.13605ZM252.114 -8.13605H251.729L-15.6973 312.007V312.468L252.114 -8.13605ZM244.828 -8.13605H245.21L-15.6973 304.202V303.745L244.828 -8.13605ZM265.918 -8.13605H265.535L-2.8291 313.13H-2.44689L265.918 -8.13605ZM237.926 -8.13605H238.308L-15.6973 295.94V295.483L237.926 -8.13605ZM162.386 -8.13605H162.001L-15.6973 204.591V205.051L162.386 -8.13605ZM37.7615 -8.13605H38.1464L-15.6973 56.3216V55.8607L37.7615 -8.13605ZM31.2421 -8.13605H30.8599L-15.6973 47.5987V48.0562L31.2421 -8.13605ZM51.5674 -8.13605H51.9496L-15.6973 72.8456V72.3881L51.5674 -8.13605ZM45.048 -8.13605H44.6658L-15.6973 64.126V64.5836L45.048 -8.13605ZM58.4689 -8.13605H58.8512L-15.6973 81.1077V80.6501L58.4689 -8.13605ZM24.3406 -8.13605H23.9583L-15.6973 39.3367V39.7942L24.3406 -8.13605ZM17.0568 -8.13605H17.439L-15.6973 31.5322V31.0746L17.0568 -8.13605ZM-10.17 -8.13605H-10.5523L-15.6973 -1.97683V-1.51927L-10.17 -8.13605ZM-3.65068 -8.13605H-3.26846L-15.6973 6.74278V6.28522L-3.65068 -8.13605ZM3.63312 -8.13605H3.2509L-15.6973 14.5473V15.0048L3.63312 -8.13605ZM10.1525 -8.13605H10.5374L-15.6973 23.2701V22.8093L10.1525 -8.13605ZM93.3618 -8.13605H92.9795L-15.6973 121.964V122.421L93.3618 -8.13605ZM65.3705 -8.13605H65.7554L-15.6973 89.373V88.9122L65.3705 -8.13605ZM127.872 -8.13605H127.49L-15.6973 163.277V163.735L127.872 -8.13605ZM134.392 -8.13605H134.777L-15.6973 172V171.539L134.392 -8.13605ZM114.069 -8.13605H113.687L-15.6973 146.753V147.211L114.069 -8.13605ZM141.296 -8.13605H141.678L-15.6973 180.262V179.804L141.296 -8.13605ZM120.971 -8.13605H120.589L-15.6973 155.015V155.473L120.971 -8.13605ZM86.078 -8.13605H86.4602L-15.6973 114.159V113.702L86.078 -8.13605ZM72.657 -8.13605H72.2721L-15.6973 97.1742V97.635L72.657 -8.13605ZM106.783 -8.13605H107.168L-15.6973 138.948V138.488L106.783 -8.13605ZM148.58 -8.13605H148.198L-15.6973 188.066V188.524L148.58 -8.13605ZM99.8811 -8.13605H100.266L-15.6973 130.686V130.226L99.8811 -8.13605ZM79.5586 -8.13605H79.1764L-15.6973 105.44V105.897L79.5586 -8.13605ZM374.652 125.646V126.103L218.423 313.129H218.041L374.652 125.646ZM374.652 183.945V183.484L266.354 313.129H266.739L374.652 183.945ZM374.652 200.012V200.469L280.542 313.13H280.16L374.652 200.012ZM374.652 175.681V175.223L259.453 313.13H259.835L374.652 175.681ZM374.651 208.272V208.73L287.444 313.128H287.062L374.651 208.272ZM374.652 192.205V191.745L273.256 313.128H273.641L374.652 192.205ZM374.651 166.96V167.418L252.933 313.13H252.551L374.651 166.96ZM374.651 134.366V133.909L224.941 313.13H225.324L374.651 134.366ZM374.652 142.172V142.632L232.229 313.13H231.844L374.652 142.172ZM374.651 150.893V150.432L238.745 313.129H239.13L374.651 150.893ZM374.651 158.699V159.157L246.032 313.131H245.649L374.651 158.699ZM374.651 216.995V216.537L293.963 313.131H294.348L374.651 216.995ZM374.652 290.901V291.358L356.465 313.13H356.083L374.652 290.901ZM374.651 274.835V274.377L342.279 313.13H342.662L374.651 274.835ZM374.651 282.638V283.096L349.563 313.129H349.181L374.651 282.638ZM374.651 307.887V307.427L369.886 313.131H370.271L374.651 307.887ZM374.651 299.162V299.622L363.369 313.129H362.984L374.651 299.162ZM374.651 258.31V257.849L328.474 313.13H328.859L374.651 258.31ZM374.652 241.326V241.783L315.053 313.13H314.671L374.652 241.326ZM374.652 233.522V233.061L307.77 313.131H308.152L374.652 233.522ZM374.651 266.112V266.573L335.76 313.131H335.375L374.651 266.112ZM374.651 225.257V224.796L300.864 313.128H301.249L374.651 225.257ZM374.652 249.589V250.046L321.954 313.131H321.572L374.652 249.589ZM374.652 93.0521V92.5945L190.432 313.129H190.814L374.652 93.0521ZM362.165 -8.13605H362.548L94.183 313.13H93.8008L362.165 -8.13605ZM369.449 -8.13605H369.067L100.702 313.13H101.084L369.449 -8.13605ZM374.651 -6.55764V-6.09683L107.986 313.131H107.604L374.651 -6.55764ZM374.651 10.4268V9.96603L121.41 313.131H121.792L374.651 10.4268ZM374.651 1.70319V2.16399L114.891 313.13H114.506L374.651 1.70319ZM348.745 -8.13605H348.36L79.9951 313.13H80.38L348.745 -8.13605ZM334.556 -8.13605H334.938L66.5736 313.13H66.1914L334.556 -8.13605ZM328.037 -8.13605H327.655L59.29 313.13H59.6723L328.037 -8.13605ZM355.261 -8.13605H355.646L87.2816 313.13H86.8994L355.261 -8.13605ZM341.84 -8.13605H341.457L73.0928 313.13H73.475L341.84 -8.13605ZM374.651 18.2309V18.6885L128.694 313.13H128.312L374.651 18.2309ZM374.652 101.317V100.859L197.333 313.132H197.715L374.652 101.317ZM374.651 84.3296V84.7904L183.911 313.129H183.529L374.651 84.3296ZM374.652 76.5296V76.0688L176.626 313.131H177.011L374.652 76.5296ZM374.651 26.4938V26.9513L135.595 313.131H135.213L374.651 26.4938ZM374.651 109.581V109.12L204.234 313.13H204.619L374.651 109.581ZM374.652 117.381V117.842L211.522 313.129H211.137L374.652 117.381ZM321.135 -8.13605H320.75L52.3857 313.13H52.7707L321.135 -8.13605ZM374.652 43.0154V43.4762L149.402 313.128H149.017L374.652 43.0154ZM374.652 35.2154V34.7546L142.115 313.13H142.5L374.652 35.2154ZM374.651 67.806V68.2668L170.106 313.13H169.724L374.651 67.806ZM374.651 60.0007V59.5431L162.822 313.129H163.204L374.651 60.0007ZM374.651 51.2823V51.7399L156.302 313.13H155.92L374.651 51.2823Z" fill="#404446"/>
</svg>
