<svg width="20" height="17" viewBox="0 0 20 17" fill="none" xmlns="http://www.w3.org/2000/svg">
<path opacity="0.4" d="M17.0497 12.0153C17.4038 11.4608 17.9065 11.0169 18.5006 10.7341V4.56035C17.7948 4.22437 17.2212 3.66253 16.8706 2.96379C16.5067 2.91902 16.1404 2.8969 15.7738 2.89754C14.0363 2.89754 12.2547 3.34847 10.3675 3.82566C8.38656 4.32566 6.33781 4.84566 4.22656 4.84566C3.80038 4.84618 3.37446 4.82407 2.95063 4.77941C2.59659 5.33389 2.09397 5.77782 1.5 6.06066V12.2347C2.20572 12.5708 2.7792 13.1326 3.12969 13.8313C3.49359 13.876 3.85992 13.8982 4.22656 13.8975C5.96406 13.8975 7.74594 13.4466 9.63281 12.9691C11.6141 12.4675 13.6641 11.9491 15.7744 11.9491C16.2004 11.9486 16.6261 11.9707 17.0497 12.0153ZM10.0003 11.3975C8.61938 11.3975 7.50031 10.0538 7.50031 8.39753C7.50031 6.74129 8.61969 5.39754 10.0003 5.39754C11.3809 5.39754 12.5003 6.74129 12.5003 8.39753C12.5003 10.0538 11.3806 11.3975 10.0003 11.3975Z" fill="#202325"/>
<path d="M19.4112 2.0994C18.1991 1.59096 16.9859 1.39752 15.7734 1.39752C11.9237 1.39752 8.07531 3.34565 4.22656 3.34565C3.26125 3.34565 2.29656 3.22315 1.33125 2.9169C1.22668 2.88351 1.11759 2.86643 1.00781 2.86627C0.46875 2.86627 0 3.28252 0 3.86033V13.7747C0 14.1694 0.225938 14.5435 0.58875 14.6953C1.80094 15.2041 3.01406 15.3975 4.22656 15.3975C8.07562 15.3975 11.9247 13.4491 15.7738 13.4491C16.7391 13.4491 17.7037 13.5716 18.6691 13.8778C18.7736 13.9113 18.8827 13.9285 18.9925 13.9288C19.5312 13.9288 20 13.5122 20 12.9344V3.02033C20 2.62533 19.7741 2.25158 19.4112 2.0994ZM9.63219 12.9691C7.74594 13.4466 5.96406 13.8975 4.22656 13.8975C3.85992 13.8982 3.49359 13.876 3.12969 13.8313C2.7792 13.1326 2.20572 12.5708 1.5 12.2347V6.06033C2.09397 5.7775 2.59659 5.33357 2.95062 4.77908C3.37446 4.82374 3.80038 4.84586 4.22656 4.84533C6.33781 4.84533 8.38656 4.3269 10.3675 3.82533C12.2534 3.34846 14.035 2.89752 15.7725 2.89752C16.1391 2.89688 16.5055 2.91901 16.8694 2.96377C17.2201 3.66262 17.7939 4.22447 18.5 4.56033V10.7347C17.9059 11.0175 17.4032 11.4614 17.0491 12.016C16.6253 11.9713 16.1995 11.9492 15.7734 11.9497C13.6622 11.9491 11.6134 12.4675 9.63219 12.9691Z" fill="#202325"/>
</svg>
