<svg width="18" height="13" viewBox="0 0 18 13" fill="none" xmlns="http://www.w3.org/2000/svg">
<path d="M9 0.772522C5.25 0.772522 2.0475 3.10502 0.75 6.39752C2.0475 9.69002 5.25 12.0225 9 12.0225C12.75 12.0225 15.9525 9.69002 17.25 6.39752C15.9525 3.10502 12.75 0.772522 9 0.772522ZM9 10.1475C6.93 10.1475 5.25 8.46752 5.25 6.39752C5.25 4.32752 6.93 2.64752 9 2.64752C11.07 2.64752 12.75 4.32752 12.75 6.39752C12.75 8.46752 11.07 10.1475 9 10.1475ZM9 4.14752C7.755 4.14752 6.75 5.15252 6.75 6.39752C6.75 7.64252 7.755 8.64752 9 8.64752C10.245 8.64752 11.25 7.64252 11.25 6.39752C11.25 5.15252 10.245 4.14752 9 4.14752Z" fill="#E66652"/>
</svg>
